<mxfile host="app.diagrams.net" agent="Mozilla/5.0 (Macintosh; Intel Mac OS X 10_15_7) AppleWebKit/537.36 (KHTML, like Gecko) Chrome/132.0.0.0 Safari/537.36" version="26.1.0">
  <diagram name="Page-1" id="2YBvvXClWsGukQMizWep">
    <mxGraphModel dx="1434" dy="819" grid="1" gridSize="10" guides="1" tooltips="1" connect="1" arrows="1" fold="1" page="1" pageScale="1" pageWidth="850" pageHeight="1100" math="0" shadow="0">
      <root>
        <mxCell id="0" />
        <mxCell id="1" parent="0" />
        <mxCell id="aM9ryv3xv72pqoxQDRHE-1" value="oxn-frontend service" style="shape=umlLifeline;perimeter=lifelinePerimeter;whiteSpace=wrap;html=1;container=0;dropTarget=0;collapsible=0;recursiveResize=0;outlineConnect=0;portConstraint=eastwest;newEdgeStyle={&quot;edgeStyle&quot;:&quot;elbowEdgeStyle&quot;,&quot;elbow&quot;:&quot;vertical&quot;,&quot;curved&quot;:0,&quot;rounded&quot;:0};" parent="1" vertex="1">
          <mxGeometry x="160" y="40" width="100" height="540" as="geometry" />
        </mxCell>
        <mxCell id="aM9ryv3xv72pqoxQDRHE-3" value="" style="html=1;verticalAlign=bottom;startArrow=none;endArrow=block;startSize=8;edgeStyle=elbowEdgeStyle;elbow=vertical;curved=0;rounded=0;startFill=0;" parent="aM9ryv3xv72pqoxQDRHE-1" edge="1">
          <mxGeometry x="0.1818" relative="1" as="geometry">
            <mxPoint x="-15" y="70" as="sourcePoint" />
            <mxPoint x="45" y="70" as="targetPoint" />
            <Array as="points">
              <mxPoint x="-70" y="70" />
            </Array>
            <mxPoint as="offset" />
          </mxGeometry>
        </mxCell>
        <mxCell id="FyJZWLL0IPe1g8Jsir3v-2" value="create experiment" style="edgeLabel;html=1;align=center;verticalAlign=middle;resizable=0;points=[];" vertex="1" connectable="0" parent="aM9ryv3xv72pqoxQDRHE-3">
          <mxGeometry x="0.2863" relative="1" as="geometry">
            <mxPoint y="-10" as="offset" />
          </mxGeometry>
        </mxCell>
        <mxCell id="FyJZWLL0IPe1g8Jsir3v-10" value="" style="html=1;points=[[0,0,0,0,5],[0,1,0,0,-5],[1,0,0,0,5],[1,1,0,0,-5]];perimeter=orthogonalPerimeter;outlineConnect=0;targetShapes=umlLifeline;portConstraint=eastwest;newEdgeStyle={&quot;curved&quot;:0,&quot;rounded&quot;:0};" vertex="1" parent="aM9ryv3xv72pqoxQDRHE-1">
          <mxGeometry x="45" y="70" width="10" height="60" as="geometry" />
        </mxCell>
        <mxCell id="FyJZWLL0IPe1g8Jsir3v-25" value="" style="html=1;points=[[0,0,0,0,5],[0,1,0,0,-5],[1,0,0,0,5],[1,1,0,0,-5]];perimeter=orthogonalPerimeter;outlineConnect=0;targetShapes=umlLifeline;portConstraint=eastwest;newEdgeStyle={&quot;curved&quot;:0,&quot;rounded&quot;:0};" vertex="1" parent="aM9ryv3xv72pqoxQDRHE-1">
          <mxGeometry x="45" y="170" width="10" height="160" as="geometry" />
        </mxCell>
        <mxCell id="aM9ryv3xv72pqoxQDRHE-5" value="oxn-backend service" style="shape=umlLifeline;perimeter=lifelinePerimeter;whiteSpace=wrap;html=1;container=0;dropTarget=0;collapsible=0;recursiveResize=0;outlineConnect=0;portConstraint=eastwest;newEdgeStyle={&quot;edgeStyle&quot;:&quot;elbowEdgeStyle&quot;,&quot;elbow&quot;:&quot;vertical&quot;,&quot;curved&quot;:0,&quot;rounded&quot;:0};" parent="1" vertex="1">
          <mxGeometry x="340" y="40" width="100" height="540" as="geometry" />
        </mxCell>
        <mxCell id="aM9ryv3xv72pqoxQDRHE-6" value="" style="html=1;points=[];perimeter=orthogonalPerimeter;outlineConnect=0;targetShapes=umlLifeline;portConstraint=eastwest;newEdgeStyle={&quot;edgeStyle&quot;:&quot;elbowEdgeStyle&quot;,&quot;elbow&quot;:&quot;vertical&quot;,&quot;curved&quot;:0,&quot;rounded&quot;:0};" parent="aM9ryv3xv72pqoxQDRHE-5" vertex="1">
          <mxGeometry x="45" y="80" width="10" height="40" as="geometry" />
        </mxCell>
        <mxCell id="FyJZWLL0IPe1g8Jsir3v-28" value="" style="html=1;points=[];perimeter=orthogonalPerimeter;outlineConnect=0;targetShapes=umlLifeline;portConstraint=eastwest;newEdgeStyle={&quot;edgeStyle&quot;:&quot;elbowEdgeStyle&quot;,&quot;elbow&quot;:&quot;vertical&quot;,&quot;curved&quot;:0,&quot;rounded&quot;:0};" vertex="1" parent="aM9ryv3xv72pqoxQDRHE-5">
          <mxGeometry x="45" y="190" width="10" height="140" as="geometry" />
        </mxCell>
        <mxCell id="FyJZWLL0IPe1g8Jsir3v-55" value="" style="html=1;points=[];perimeter=orthogonalPerimeter;outlineConnect=0;targetShapes=umlLifeline;portConstraint=eastwest;newEdgeStyle={&quot;edgeStyle&quot;:&quot;elbowEdgeStyle&quot;,&quot;elbow&quot;:&quot;vertical&quot;,&quot;curved&quot;:0,&quot;rounded&quot;:0};" vertex="1" parent="aM9ryv3xv72pqoxQDRHE-5">
          <mxGeometry x="45" y="400" width="10" height="40" as="geometry" />
        </mxCell>
        <mxCell id="FyJZWLL0IPe1g8Jsir3v-68" value="" style="html=1;points=[];perimeter=orthogonalPerimeter;outlineConnect=0;targetShapes=umlLifeline;portConstraint=eastwest;newEdgeStyle={&quot;edgeStyle&quot;:&quot;elbowEdgeStyle&quot;,&quot;elbow&quot;:&quot;vertical&quot;,&quot;curved&quot;:0,&quot;rounded&quot;:0};" vertex="1" parent="aM9ryv3xv72pqoxQDRHE-5">
          <mxGeometry x="45" y="460" width="10" height="40" as="geometry" />
        </mxCell>
        <mxCell id="aM9ryv3xv72pqoxQDRHE-7" value="" style="html=1;verticalAlign=bottom;endArrow=block;edgeStyle=elbowEdgeStyle;elbow=vertical;curved=0;rounded=0;" parent="1" target="aM9ryv3xv72pqoxQDRHE-6" edge="1">
          <mxGeometry relative="1" as="geometry">
            <mxPoint x="215" y="120" as="sourcePoint" />
            <Array as="points">
              <mxPoint x="300" y="120" />
            </Array>
          </mxGeometry>
        </mxCell>
        <mxCell id="FyJZWLL0IPe1g8Jsir3v-3" value="save experiment" style="edgeLabel;html=1;align=center;verticalAlign=middle;resizable=0;points=[];" vertex="1" connectable="0" parent="aM9ryv3xv72pqoxQDRHE-7">
          <mxGeometry x="-0.1832" y="3" relative="1" as="geometry">
            <mxPoint x="16" y="-7" as="offset" />
          </mxGeometry>
        </mxCell>
        <mxCell id="aM9ryv3xv72pqoxQDRHE-9" value="experiment created" style="html=1;verticalAlign=bottom;endArrow=block;edgeStyle=elbowEdgeStyle;elbow=vertical;curved=0;rounded=0;dashed=1;" parent="1" source="aM9ryv3xv72pqoxQDRHE-6" target="FyJZWLL0IPe1g8Jsir3v-10" edge="1">
          <mxGeometry relative="1" as="geometry">
            <mxPoint x="295" y="160" as="sourcePoint" />
            <Array as="points">
              <mxPoint x="310" y="160" />
            </Array>
            <mxPoint x="220" y="160" as="targetPoint" />
          </mxGeometry>
        </mxCell>
        <mxCell id="FyJZWLL0IPe1g8Jsir3v-1" value="" style="shape=umlLifeline;perimeter=lifelinePerimeter;whiteSpace=wrap;html=1;container=1;dropTarget=0;collapsible=0;recursiveResize=0;outlineConnect=0;portConstraint=eastwest;newEdgeStyle={&quot;curved&quot;:0,&quot;rounded&quot;:0};participant=umlActor;" vertex="1" parent="1">
          <mxGeometry x="80" y="40" width="20" height="540" as="geometry" />
        </mxCell>
        <mxCell id="FyJZWLL0IPe1g8Jsir3v-14" value="" style="html=1;points=[[0,0,0,0,5],[0,1,0,0,-5],[1,0,0,0,5],[1,1,0,0,-5]];perimeter=orthogonalPerimeter;outlineConnect=0;targetShapes=umlLifeline;portConstraint=eastwest;newEdgeStyle={&quot;curved&quot;:0,&quot;rounded&quot;:0};" vertex="1" parent="FyJZWLL0IPe1g8Jsir3v-1">
          <mxGeometry x="5" y="70" width="10" height="60" as="geometry" />
        </mxCell>
        <mxCell id="FyJZWLL0IPe1g8Jsir3v-23" value="" style="html=1;verticalAlign=bottom;startArrow=none;endArrow=block;startSize=8;edgeStyle=elbowEdgeStyle;elbow=vertical;curved=0;rounded=0;startFill=0;" edge="1" parent="FyJZWLL0IPe1g8Jsir3v-1">
          <mxGeometry x="0.1818" relative="1" as="geometry">
            <mxPoint x="65" y="170" as="sourcePoint" />
            <mxPoint x="125" y="170" as="targetPoint" />
            <Array as="points">
              <mxPoint x="10" y="170" />
            </Array>
            <mxPoint as="offset" />
          </mxGeometry>
        </mxCell>
        <mxCell id="FyJZWLL0IPe1g8Jsir3v-24" value="start experiment" style="edgeLabel;html=1;align=center;verticalAlign=middle;resizable=0;points=[];" vertex="1" connectable="0" parent="FyJZWLL0IPe1g8Jsir3v-23">
          <mxGeometry x="0.2863" relative="1" as="geometry">
            <mxPoint y="-10" as="offset" />
          </mxGeometry>
        </mxCell>
        <mxCell id="FyJZWLL0IPe1g8Jsir3v-48" value="" style="html=1;points=[[0,0,0,0,5],[0,1,0,0,-5],[1,0,0,0,5],[1,1,0,0,-5]];perimeter=orthogonalPerimeter;outlineConnect=0;targetShapes=umlLifeline;portConstraint=eastwest;newEdgeStyle={&quot;curved&quot;:0,&quot;rounded&quot;:0};" vertex="1" parent="FyJZWLL0IPe1g8Jsir3v-1">
          <mxGeometry x="5" y="170" width="10" height="30" as="geometry" />
        </mxCell>
        <mxCell id="FyJZWLL0IPe1g8Jsir3v-49" value="" style="html=1;points=[[0,0,0,0,5],[0,1,0,0,-5],[1,0,0,0,5],[1,1,0,0,-5]];perimeter=orthogonalPerimeter;outlineConnect=0;targetShapes=umlLifeline;portConstraint=eastwest;newEdgeStyle={&quot;curved&quot;:0,&quot;rounded&quot;:0};" vertex="1" parent="FyJZWLL0IPe1g8Jsir3v-1">
          <mxGeometry x="5" y="390" width="10" height="120" as="geometry" />
        </mxCell>
        <mxCell id="FyJZWLL0IPe1g8Jsir3v-4" value="oxn-data-persistent-volume" style="shape=umlLifeline;perimeter=lifelinePerimeter;whiteSpace=wrap;html=1;container=0;dropTarget=0;collapsible=0;recursiveResize=0;outlineConnect=0;portConstraint=eastwest;newEdgeStyle={&quot;edgeStyle&quot;:&quot;elbowEdgeStyle&quot;,&quot;elbow&quot;:&quot;vertical&quot;,&quot;curved&quot;:0,&quot;rounded&quot;:0};" vertex="1" parent="1">
          <mxGeometry x="510" y="40" width="100" height="540" as="geometry" />
        </mxCell>
        <mxCell id="FyJZWLL0IPe1g8Jsir3v-31" value="" style="html=1;points=[[0,0,0,0,5],[0,1,0,0,-5],[1,0,0,0,5],[1,1,0,0,-5]];perimeter=orthogonalPerimeter;outlineConnect=0;targetShapes=umlLifeline;portConstraint=eastwest;newEdgeStyle={&quot;curved&quot;:0,&quot;rounded&quot;:0};" vertex="1" parent="FyJZWLL0IPe1g8Jsir3v-4">
          <mxGeometry x="45" y="90" width="10" height="20" as="geometry" />
        </mxCell>
        <mxCell id="FyJZWLL0IPe1g8Jsir3v-32" value="" style="html=1;points=[[0,0,0,0,5],[0,1,0,0,-5],[1,0,0,0,5],[1,1,0,0,-5]];perimeter=orthogonalPerimeter;outlineConnect=0;targetShapes=umlLifeline;portConstraint=eastwest;newEdgeStyle={&quot;curved&quot;:0,&quot;rounded&quot;:0};" vertex="1" parent="FyJZWLL0IPe1g8Jsir3v-4">
          <mxGeometry x="45" y="200" width="10" height="20" as="geometry" />
        </mxCell>
        <mxCell id="FyJZWLL0IPe1g8Jsir3v-37" value="" style="html=1;points=[[0,0,0,0,5],[0,1,0,0,-5],[1,0,0,0,5],[1,1,0,0,-5]];perimeter=orthogonalPerimeter;outlineConnect=0;targetShapes=umlLifeline;portConstraint=eastwest;newEdgeStyle={&quot;curved&quot;:0,&quot;rounded&quot;:0};" vertex="1" parent="FyJZWLL0IPe1g8Jsir3v-4">
          <mxGeometry x="45" y="270" width="10" height="20" as="geometry" />
        </mxCell>
        <mxCell id="FyJZWLL0IPe1g8Jsir3v-56" value="" style="html=1;points=[[0,0,0,0,5],[0,1,0,0,-5],[1,0,0,0,5],[1,1,0,0,-5]];perimeter=orthogonalPerimeter;outlineConnect=0;targetShapes=umlLifeline;portConstraint=eastwest;newEdgeStyle={&quot;curved&quot;:0,&quot;rounded&quot;:0};" vertex="1" parent="FyJZWLL0IPe1g8Jsir3v-4">
          <mxGeometry x="45" y="410" width="10" height="20" as="geometry" />
        </mxCell>
        <mxCell id="FyJZWLL0IPe1g8Jsir3v-73" value="" style="html=1;points=[[0,0,0,0,5],[0,1,0,0,-5],[1,0,0,0,5],[1,1,0,0,-5]];perimeter=orthogonalPerimeter;outlineConnect=0;targetShapes=umlLifeline;portConstraint=eastwest;newEdgeStyle={&quot;curved&quot;:0,&quot;rounded&quot;:0};" vertex="1" parent="FyJZWLL0IPe1g8Jsir3v-4">
          <mxGeometry x="45" y="340" width="10" height="20" as="geometry" />
        </mxCell>
        <mxCell id="FyJZWLL0IPe1g8Jsir3v-6" value="oxn-analysis-service" style="shape=umlLifeline;perimeter=lifelinePerimeter;whiteSpace=wrap;html=1;container=0;dropTarget=0;collapsible=0;recursiveResize=0;outlineConnect=0;portConstraint=eastwest;newEdgeStyle={&quot;edgeStyle&quot;:&quot;elbowEdgeStyle&quot;,&quot;elbow&quot;:&quot;vertical&quot;,&quot;curved&quot;:0,&quot;rounded&quot;:0};" vertex="1" parent="1">
          <mxGeometry x="640" y="40" width="100" height="540" as="geometry" />
        </mxCell>
        <mxCell id="FyJZWLL0IPe1g8Jsir3v-40" value="" style="html=1;points=[[0,0,0,0,5],[0,1,0,0,-5],[1,0,0,0,5],[1,1,0,0,-5]];perimeter=orthogonalPerimeter;outlineConnect=0;targetShapes=umlLifeline;portConstraint=eastwest;newEdgeStyle={&quot;curved&quot;:0,&quot;rounded&quot;:0};" vertex="1" parent="FyJZWLL0IPe1g8Jsir3v-6">
          <mxGeometry x="45" y="320" width="10" height="60" as="geometry" />
        </mxCell>
        <mxCell id="FyJZWLL0IPe1g8Jsir3v-8" value="analysis-datastore-persistent-volume" style="shape=umlLifeline;perimeter=lifelinePerimeter;whiteSpace=wrap;html=1;container=0;dropTarget=0;collapsible=0;recursiveResize=0;outlineConnect=0;portConstraint=eastwest;newEdgeStyle={&quot;edgeStyle&quot;:&quot;elbowEdgeStyle&quot;,&quot;elbow&quot;:&quot;vertical&quot;,&quot;curved&quot;:0,&quot;rounded&quot;:0};" vertex="1" parent="1">
          <mxGeometry x="760" y="40" width="100" height="540" as="geometry" />
        </mxCell>
        <mxCell id="FyJZWLL0IPe1g8Jsir3v-46" value="" style="html=1;points=[[0,0,0,0,5],[0,1,0,0,-5],[1,0,0,0,5],[1,1,0,0,-5]];perimeter=orthogonalPerimeter;outlineConnect=0;targetShapes=umlLifeline;portConstraint=eastwest;newEdgeStyle={&quot;curved&quot;:0,&quot;rounded&quot;:0};" vertex="1" parent="FyJZWLL0IPe1g8Jsir3v-8">
          <mxGeometry x="45" y="380" width="10" height="20" as="geometry" />
        </mxCell>
        <mxCell id="FyJZWLL0IPe1g8Jsir3v-63" value="" style="html=1;points=[[0,0,0,0,5],[0,1,0,0,-5],[1,0,0,0,5],[1,1,0,0,-5]];perimeter=orthogonalPerimeter;outlineConnect=0;targetShapes=umlLifeline;portConstraint=eastwest;newEdgeStyle={&quot;curved&quot;:0,&quot;rounded&quot;:0};" vertex="1" parent="FyJZWLL0IPe1g8Jsir3v-8">
          <mxGeometry x="45" y="470" width="10" height="20" as="geometry" />
        </mxCell>
        <mxCell id="FyJZWLL0IPe1g8Jsir3v-11" value="" style="html=1;verticalAlign=bottom;startArrow=none;endArrow=block;startSize=8;edgeStyle=elbowEdgeStyle;elbow=vertical;curved=0;rounded=0;startFill=0;dashed=1;" edge="1" parent="1" target="FyJZWLL0IPe1g8Jsir3v-14">
          <mxGeometry x="0.1818" relative="1" as="geometry">
            <mxPoint x="205" y="170" as="sourcePoint" />
            <mxPoint x="90.07446808510633" y="170" as="targetPoint" />
            <Array as="points">
              <mxPoint x="90" y="170" />
            </Array>
            <mxPoint as="offset" />
          </mxGeometry>
        </mxCell>
        <mxCell id="FyJZWLL0IPe1g8Jsir3v-13" value="experiment&amp;nbsp;&lt;div&gt;successfully&amp;nbsp;&lt;/div&gt;&lt;div&gt;created&lt;/div&gt;" style="edgeLabel;html=1;align=center;verticalAlign=middle;resizable=0;points=[];" vertex="1" connectable="0" parent="FyJZWLL0IPe1g8Jsir3v-11">
          <mxGeometry x="-0.0219" y="-1" relative="1" as="geometry">
            <mxPoint as="offset" />
          </mxGeometry>
        </mxCell>
        <mxCell id="FyJZWLL0IPe1g8Jsir3v-16" value="" style="html=1;verticalAlign=bottom;endArrow=block;edgeStyle=elbowEdgeStyle;elbow=vertical;curved=0;rounded=0;" edge="1" parent="1" source="aM9ryv3xv72pqoxQDRHE-6">
          <mxGeometry relative="1" as="geometry">
            <mxPoint x="400" y="130" as="sourcePoint" />
            <Array as="points">
              <mxPoint x="475" y="130" />
            </Array>
            <mxPoint x="560" y="130" as="targetPoint" />
          </mxGeometry>
        </mxCell>
        <mxCell id="FyJZWLL0IPe1g8Jsir3v-17" value="save experiment config&amp;nbsp;" style="edgeLabel;html=1;align=center;verticalAlign=middle;resizable=0;points=[];" vertex="1" connectable="0" parent="FyJZWLL0IPe1g8Jsir3v-16">
          <mxGeometry x="-0.1832" y="3" relative="1" as="geometry">
            <mxPoint x="16" y="-7" as="offset" />
          </mxGeometry>
        </mxCell>
        <mxCell id="FyJZWLL0IPe1g8Jsir3v-21" value="experiment config saved" style="html=1;verticalAlign=bottom;endArrow=block;edgeStyle=elbowEdgeStyle;elbow=vertical;curved=0;rounded=0;dashed=1;" edge="1" parent="1" target="aM9ryv3xv72pqoxQDRHE-6">
          <mxGeometry relative="1" as="geometry">
            <mxPoint x="560" y="150" as="sourcePoint" />
            <Array as="points">
              <mxPoint x="485" y="150" />
            </Array>
            <mxPoint x="400" y="150" as="targetPoint" />
          </mxGeometry>
        </mxCell>
        <mxCell id="FyJZWLL0IPe1g8Jsir3v-26" value="" style="html=1;verticalAlign=bottom;endArrow=block;edgeStyle=elbowEdgeStyle;elbow=vertical;curved=0;rounded=0;" edge="1" parent="1" source="FyJZWLL0IPe1g8Jsir3v-25" target="FyJZWLL0IPe1g8Jsir3v-28">
          <mxGeometry relative="1" as="geometry">
            <mxPoint x="220" y="230" as="sourcePoint" />
            <Array as="points">
              <mxPoint x="305" y="230" />
            </Array>
            <mxPoint x="380" y="230" as="targetPoint" />
          </mxGeometry>
        </mxCell>
        <mxCell id="FyJZWLL0IPe1g8Jsir3v-27" value="run experiment" style="edgeLabel;html=1;align=center;verticalAlign=middle;resizable=0;points=[];" vertex="1" connectable="0" parent="FyJZWLL0IPe1g8Jsir3v-26">
          <mxGeometry x="-0.1832" y="3" relative="1" as="geometry">
            <mxPoint x="16" y="-7" as="offset" />
          </mxGeometry>
        </mxCell>
        <mxCell id="FyJZWLL0IPe1g8Jsir3v-29" value="" style="html=1;verticalAlign=bottom;endArrow=block;edgeStyle=elbowEdgeStyle;elbow=vertical;curved=0;rounded=0;" edge="1" parent="1" source="FyJZWLL0IPe1g8Jsir3v-28">
          <mxGeometry relative="1" as="geometry">
            <mxPoint x="400" y="240" as="sourcePoint" />
            <Array as="points">
              <mxPoint x="470" y="240" />
            </Array>
            <mxPoint x="555" y="240" as="targetPoint" />
          </mxGeometry>
        </mxCell>
        <mxCell id="FyJZWLL0IPe1g8Jsir3v-30" value="get experiment config" style="edgeLabel;html=1;align=center;verticalAlign=middle;resizable=0;points=[];" vertex="1" connectable="0" parent="FyJZWLL0IPe1g8Jsir3v-29">
          <mxGeometry x="-0.1832" y="3" relative="1" as="geometry">
            <mxPoint x="16" y="-7" as="offset" />
          </mxGeometry>
        </mxCell>
        <mxCell id="FyJZWLL0IPe1g8Jsir3v-33" value="return experiment config" style="html=1;verticalAlign=bottom;endArrow=block;edgeStyle=elbowEdgeStyle;elbow=vertical;curved=0;rounded=0;dashed=1;" edge="1" parent="1" target="FyJZWLL0IPe1g8Jsir3v-28">
          <mxGeometry relative="1" as="geometry">
            <mxPoint x="565" y="260" as="sourcePoint" />
            <Array as="points">
              <mxPoint x="490" y="260" />
            </Array>
            <mxPoint x="400" y="260" as="targetPoint" />
          </mxGeometry>
        </mxCell>
        <mxCell id="FyJZWLL0IPe1g8Jsir3v-34" value="save experiment reports" style="html=1;verticalAlign=bottom;endArrow=block;edgeStyle=elbowEdgeStyle;elbow=vertical;curved=0;rounded=0;" edge="1" parent="1" target="FyJZWLL0IPe1g8Jsir3v-37">
          <mxGeometry relative="1" as="geometry">
            <mxPoint x="395" y="310" as="sourcePoint" />
            <Array as="points">
              <mxPoint x="475" y="310" />
            </Array>
            <mxPoint x="550" y="310" as="targetPoint" />
          </mxGeometry>
        </mxCell>
        <mxCell id="FyJZWLL0IPe1g8Jsir3v-36" value="experiment config saved" style="html=1;verticalAlign=bottom;endArrow=block;edgeStyle=elbowEdgeStyle;elbow=vertical;curved=0;rounded=0;dashed=1;" edge="1" parent="1">
          <mxGeometry x="0.0008" relative="1" as="geometry">
            <mxPoint x="555" y="330" as="sourcePoint" />
            <Array as="points">
              <mxPoint x="480" y="330" />
            </Array>
            <mxPoint x="395" y="330" as="targetPoint" />
            <mxPoint as="offset" />
          </mxGeometry>
        </mxCell>
        <mxCell id="FyJZWLL0IPe1g8Jsir3v-39" value="start analysis" style="html=1;verticalAlign=bottom;endArrow=open;edgeStyle=elbowEdgeStyle;elbow=vertical;curved=0;rounded=0;endFill=0;" edge="1" parent="1" source="FyJZWLL0IPe1g8Jsir3v-28" target="FyJZWLL0IPe1g8Jsir3v-40">
          <mxGeometry relative="1" as="geometry">
            <mxPoint x="400" y="360" as="sourcePoint" />
            <Array as="points">
              <mxPoint x="470" y="360" />
            </Array>
            <mxPoint x="700" y="360" as="targetPoint" />
          </mxGeometry>
        </mxCell>
        <mxCell id="FyJZWLL0IPe1g8Jsir3v-41" value="experiment finished" style="html=1;verticalAlign=bottom;endArrow=block;edgeStyle=elbowEdgeStyle;elbow=vertical;curved=0;rounded=0;dashed=1;" edge="1" parent="1" target="FyJZWLL0IPe1g8Jsir3v-25">
          <mxGeometry relative="1" as="geometry">
            <mxPoint x="390" y="370" as="sourcePoint" />
            <Array as="points">
              <mxPoint x="315" y="370" />
            </Array>
            <mxPoint x="220" y="370" as="targetPoint" />
          </mxGeometry>
        </mxCell>
        <mxCell id="FyJZWLL0IPe1g8Jsir3v-42" value="" style="html=1;verticalAlign=bottom;startArrow=none;endArrow=block;startSize=8;edgeStyle=elbowEdgeStyle;elbow=vertical;curved=0;rounded=0;startFill=0;dashed=1;" edge="1" parent="1">
          <mxGeometry x="0.1818" relative="1" as="geometry">
            <mxPoint x="205" y="240" as="sourcePoint" />
            <mxPoint x="95" y="240" as="targetPoint" />
            <Array as="points" />
            <mxPoint as="offset" />
          </mxGeometry>
        </mxCell>
        <mxCell id="FyJZWLL0IPe1g8Jsir3v-43" value="experiment&lt;div&gt;started&lt;/div&gt;" style="edgeLabel;html=1;align=center;verticalAlign=middle;resizable=0;points=[];" vertex="1" connectable="0" parent="FyJZWLL0IPe1g8Jsir3v-42">
          <mxGeometry x="-0.0219" y="-1" relative="1" as="geometry">
            <mxPoint y="1" as="offset" />
          </mxGeometry>
        </mxCell>
        <mxCell id="FyJZWLL0IPe1g8Jsir3v-44" value="" style="html=1;verticalAlign=bottom;endArrow=open;edgeStyle=elbowEdgeStyle;elbow=vertical;curved=0;rounded=0;dashed=1;endFill=0;" edge="1" parent="1" source="FyJZWLL0IPe1g8Jsir3v-40" target="FyJZWLL0IPe1g8Jsir3v-46">
          <mxGeometry relative="1" as="geometry">
            <mxPoint x="740" y="420" as="sourcePoint" />
            <Array as="points">
              <mxPoint x="815" y="420" />
            </Array>
            <mxPoint x="890" y="420" as="targetPoint" />
          </mxGeometry>
        </mxCell>
        <mxCell id="FyJZWLL0IPe1g8Jsir3v-45" value="save analysis&amp;nbsp;&lt;div&gt;results&lt;/div&gt;" style="edgeLabel;html=1;align=center;verticalAlign=middle;resizable=0;points=[];" vertex="1" connectable="0" parent="FyJZWLL0IPe1g8Jsir3v-44">
          <mxGeometry x="-0.1832" y="3" relative="1" as="geometry">
            <mxPoint x="10" y="3" as="offset" />
          </mxGeometry>
        </mxCell>
        <mxCell id="FyJZWLL0IPe1g8Jsir3v-50" value="" style="html=1;verticalAlign=bottom;startArrow=none;endArrow=block;startSize=8;edgeStyle=elbowEdgeStyle;elbow=vertical;curved=0;rounded=0;startFill=0;" edge="1" parent="1">
          <mxGeometry x="0.1818" relative="1" as="geometry">
            <mxPoint x="145" y="430" as="sourcePoint" />
            <mxPoint x="205" y="430" as="targetPoint" />
            <Array as="points">
              <mxPoint x="90" y="430" />
            </Array>
            <mxPoint as="offset" />
          </mxGeometry>
        </mxCell>
        <mxCell id="FyJZWLL0IPe1g8Jsir3v-51" value="view&amp;nbsp;&lt;div&gt;experiment&amp;nbsp;&lt;div&gt;results&lt;/div&gt;&lt;/div&gt;" style="edgeLabel;html=1;align=center;verticalAlign=middle;resizable=0;points=[];" vertex="1" connectable="0" parent="FyJZWLL0IPe1g8Jsir3v-50">
          <mxGeometry x="0.2863" relative="1" as="geometry">
            <mxPoint as="offset" />
          </mxGeometry>
        </mxCell>
        <mxCell id="FyJZWLL0IPe1g8Jsir3v-52" value="" style="html=1;points=[[0,0,0,0,5],[0,1,0,0,-5],[1,0,0,0,5],[1,1,0,0,-5]];perimeter=orthogonalPerimeter;outlineConnect=0;targetShapes=umlLifeline;portConstraint=eastwest;newEdgeStyle={&quot;curved&quot;:0,&quot;rounded&quot;:0};" vertex="1" parent="1">
          <mxGeometry x="205" y="430" width="10" height="120" as="geometry" />
        </mxCell>
        <mxCell id="FyJZWLL0IPe1g8Jsir3v-53" value="" style="html=1;verticalAlign=bottom;endArrow=block;edgeStyle=elbowEdgeStyle;elbow=vertical;curved=0;rounded=0;" edge="1" parent="1">
          <mxGeometry relative="1" as="geometry">
            <mxPoint x="215" y="440" as="sourcePoint" />
            <Array as="points">
              <mxPoint x="300" y="440" />
            </Array>
            <mxPoint x="385" y="440" as="targetPoint" />
          </mxGeometry>
        </mxCell>
        <mxCell id="FyJZWLL0IPe1g8Jsir3v-54" value="get experiment results" style="edgeLabel;html=1;align=center;verticalAlign=middle;resizable=0;points=[];" vertex="1" connectable="0" parent="FyJZWLL0IPe1g8Jsir3v-53">
          <mxGeometry x="-0.1832" y="3" relative="1" as="geometry">
            <mxPoint x="16" y="-7" as="offset" />
          </mxGeometry>
        </mxCell>
        <mxCell id="FyJZWLL0IPe1g8Jsir3v-57" value="" style="html=1;verticalAlign=bottom;endArrow=block;edgeStyle=elbowEdgeStyle;elbow=vertical;curved=0;rounded=0;" edge="1" parent="1">
          <mxGeometry relative="1" as="geometry">
            <mxPoint x="395" y="450" as="sourcePoint" />
            <Array as="points">
              <mxPoint x="475" y="450" />
            </Array>
            <mxPoint x="560" y="450" as="targetPoint" />
          </mxGeometry>
        </mxCell>
        <mxCell id="FyJZWLL0IPe1g8Jsir3v-58" value="get experiment reports" style="edgeLabel;html=1;align=center;verticalAlign=middle;resizable=0;points=[];" vertex="1" connectable="0" parent="FyJZWLL0IPe1g8Jsir3v-57">
          <mxGeometry x="-0.1832" y="3" relative="1" as="geometry">
            <mxPoint x="16" y="-7" as="offset" />
          </mxGeometry>
        </mxCell>
        <mxCell id="FyJZWLL0IPe1g8Jsir3v-59" value="" style="html=1;verticalAlign=bottom;endArrow=block;edgeStyle=elbowEdgeStyle;elbow=vertical;curved=0;rounded=0;dashed=1;" edge="1" parent="1">
          <mxGeometry x="0.0909" relative="1" as="geometry">
            <mxPoint x="560" y="470" as="sourcePoint" />
            <Array as="points">
              <mxPoint x="485" y="470" />
            </Array>
            <mxPoint x="395" y="470" as="targetPoint" />
            <mxPoint as="offset" />
          </mxGeometry>
        </mxCell>
        <mxCell id="FyJZWLL0IPe1g8Jsir3v-64" value="if existant, return&lt;div&gt;experiment reports&lt;/div&gt;" style="edgeLabel;html=1;align=center;verticalAlign=middle;resizable=0;points=[];" vertex="1" connectable="0" parent="FyJZWLL0IPe1g8Jsir3v-59">
          <mxGeometry x="0.1273" relative="1" as="geometry">
            <mxPoint x="13" as="offset" />
          </mxGeometry>
        </mxCell>
        <mxCell id="FyJZWLL0IPe1g8Jsir3v-60" value="" style="html=1;verticalAlign=bottom;endArrow=block;edgeStyle=elbowEdgeStyle;elbow=vertical;curved=0;rounded=0;" edge="1" parent="1" target="FyJZWLL0IPe1g8Jsir3v-63">
          <mxGeometry relative="1" as="geometry">
            <mxPoint x="395" y="510" as="sourcePoint" />
            <Array as="points">
              <mxPoint x="485" y="510" />
            </Array>
            <mxPoint x="570" y="510" as="targetPoint" />
          </mxGeometry>
        </mxCell>
        <mxCell id="FyJZWLL0IPe1g8Jsir3v-61" value="get analysis results" style="edgeLabel;html=1;align=center;verticalAlign=middle;resizable=0;points=[];" vertex="1" connectable="0" parent="FyJZWLL0IPe1g8Jsir3v-60">
          <mxGeometry x="-0.1832" y="3" relative="1" as="geometry">
            <mxPoint x="16" y="-7" as="offset" />
          </mxGeometry>
        </mxCell>
        <mxCell id="FyJZWLL0IPe1g8Jsir3v-62" value="if existant, return analysis results&amp;nbsp;" style="html=1;verticalAlign=bottom;endArrow=block;edgeStyle=elbowEdgeStyle;elbow=vertical;curved=0;rounded=0;dashed=1;" edge="1" parent="1" source="FyJZWLL0IPe1g8Jsir3v-63">
          <mxGeometry x="0.0011" relative="1" as="geometry">
            <mxPoint x="870" y="530" as="sourcePoint" />
            <Array as="points">
              <mxPoint x="495" y="530" />
            </Array>
            <mxPoint x="395" y="530" as="targetPoint" />
            <mxPoint as="offset" />
          </mxGeometry>
        </mxCell>
        <mxCell id="FyJZWLL0IPe1g8Jsir3v-65" value="experiment finished" style="html=1;verticalAlign=bottom;endArrow=block;edgeStyle=elbowEdgeStyle;elbow=vertical;curved=0;rounded=0;dashed=1;" edge="1" parent="1">
          <mxGeometry relative="1" as="geometry">
            <mxPoint x="390" y="480" as="sourcePoint" />
            <Array as="points">
              <mxPoint x="315" y="480" />
            </Array>
            <mxPoint x="215" y="480" as="targetPoint" />
          </mxGeometry>
        </mxCell>
        <mxCell id="FyJZWLL0IPe1g8Jsir3v-66" value="" style="html=1;verticalAlign=bottom;endArrow=block;edgeStyle=elbowEdgeStyle;elbow=vertical;curved=0;rounded=0;" edge="1" parent="1">
          <mxGeometry relative="1" as="geometry">
            <mxPoint x="215" y="500" as="sourcePoint" />
            <Array as="points">
              <mxPoint x="300" y="500" />
            </Array>
            <mxPoint x="385" y="500" as="targetPoint" />
          </mxGeometry>
        </mxCell>
        <mxCell id="FyJZWLL0IPe1g8Jsir3v-67" value="get experiment results" style="edgeLabel;html=1;align=center;verticalAlign=middle;resizable=0;points=[];" vertex="1" connectable="0" parent="FyJZWLL0IPe1g8Jsir3v-66">
          <mxGeometry x="-0.1832" y="3" relative="1" as="geometry">
            <mxPoint x="16" y="-7" as="offset" />
          </mxGeometry>
        </mxCell>
        <mxCell id="FyJZWLL0IPe1g8Jsir3v-69" value="return analysis results" style="html=1;verticalAlign=bottom;endArrow=block;edgeStyle=elbowEdgeStyle;elbow=vertical;curved=0;rounded=0;dashed=1;" edge="1" parent="1">
          <mxGeometry relative="1" as="geometry">
            <mxPoint x="390" y="540" as="sourcePoint" />
            <Array as="points">
              <mxPoint x="315" y="540" />
            </Array>
            <mxPoint x="215" y="540" as="targetPoint" />
          </mxGeometry>
        </mxCell>
        <mxCell id="FyJZWLL0IPe1g8Jsir3v-70" value="" style="html=1;verticalAlign=bottom;startArrow=none;endArrow=block;startSize=8;edgeStyle=elbowEdgeStyle;elbow=vertical;curved=0;rounded=0;startFill=0;dashed=1;" edge="1" parent="1">
          <mxGeometry x="0.1818" relative="1" as="geometry">
            <mxPoint x="205" y="549" as="sourcePoint" />
            <mxPoint x="95" y="549" as="targetPoint" />
            <Array as="points" />
            <mxPoint as="offset" />
          </mxGeometry>
        </mxCell>
        <mxCell id="FyJZWLL0IPe1g8Jsir3v-71" value="experiment&lt;div&gt;started&lt;/div&gt;" style="edgeLabel;html=1;align=center;verticalAlign=middle;resizable=0;points=[];" vertex="1" connectable="0" parent="FyJZWLL0IPe1g8Jsir3v-70">
          <mxGeometry x="-0.0219" y="-1" relative="1" as="geometry">
            <mxPoint y="1" as="offset" />
          </mxGeometry>
        </mxCell>
        <mxCell id="FyJZWLL0IPe1g8Jsir3v-72" value="&lt;font style=&quot;font-size: 9px;&quot;&gt;request&amp;nbsp;&lt;/font&gt;&lt;div&gt;&lt;font style=&quot;font-size: 9px;&quot;&gt;experiment&amp;nbsp;&lt;/font&gt;&lt;span style=&quot;font-size: 9px; background-color: light-dark(#ffffff, var(--ge-dark-color, #121212)); color: light-dark(rgb(0, 0, 0), rgb(255, 255, 255));&quot;&gt;reports&lt;/span&gt;&lt;/div&gt;" style="html=1;verticalAlign=bottom;endArrow=block;edgeStyle=elbowEdgeStyle;elbow=vertical;curved=0;rounded=0;" edge="1" parent="1">
          <mxGeometry x="0.0833" y="10" relative="1" as="geometry">
            <mxPoint x="685" y="380" as="sourcePoint" />
            <Array as="points">
              <mxPoint x="605" y="380" />
            </Array>
            <mxPoint x="565.0000000000001" y="380" as="targetPoint" />
            <mxPoint as="offset" />
          </mxGeometry>
        </mxCell>
        <mxCell id="FyJZWLL0IPe1g8Jsir3v-74" value="&lt;font style=&quot;font-size: 9px;&quot;&gt;&amp;nbsp;&lt;/font&gt;&lt;span style=&quot;font-size: 9px; background-color: light-dark(#ffffff, var(--ge-dark-color, #121212)); color: light-dark(rgb(0, 0, 0), rgb(255, 255, 255));&quot;&gt;return experiment&amp;nbsp;&lt;/span&gt;&lt;div&gt;&lt;font style=&quot;font-size: 9px;&quot;&gt;reports&lt;/font&gt;&lt;/div&gt;" style="html=1;verticalAlign=bottom;endArrow=block;edgeStyle=elbowEdgeStyle;elbow=vertical;curved=0;rounded=0;" edge="1" parent="1" source="FyJZWLL0IPe1g8Jsir3v-73" target="FyJZWLL0IPe1g8Jsir3v-40">
          <mxGeometry x="-0.0833" y="-20" relative="1" as="geometry">
            <mxPoint x="570" y="400" as="sourcePoint" />
            <Array as="points">
              <mxPoint x="650" y="400" />
            </Array>
            <mxPoint x="730" y="400" as="targetPoint" />
            <mxPoint as="offset" />
          </mxGeometry>
        </mxCell>
      </root>
    </mxGraphModel>
  </diagram>
</mxfile>
